<?xml version="1.0" standalone="no"?>
<!DOCTYPE svg PUBLIC "-//W3C//DTD SVG 20010904//EN"
 "http://www.w3.org/TR/2001/REC-SVG-20010904/DTD/svg10.dtd">
<svg version="1.0" xmlns="http://www.w3.org/2000/svg"
 width="2048.000000pt" height="2048.000000pt" viewBox="0 0 2048.000000 2048.000000"
 preserveAspectRatio="xMidYMid meet">
<metadata>
Created by potrace 1.14, written by Peter Selinger 2001-2017
</metadata>
<g transform="translate(0.000000,2048.000000) scale(0.100000,-0.100000)"
fill="#000000" stroke="none">
<path d="M9409 18196 c-2 -2 -51 -7 -109 -10 -58 -3 -123 -8 -145 -11 -22 -3
-58 -7 -80 -10 -103 -12 -150 -19 -280 -41 -151 -25 -371 -70 -384 -78 -4 -3
-21 -8 -37 -10 -135 -25 -582 -177 -779 -265 -22 -10 -69 -31 -105 -46 -122
-53 -373 -185 -520 -273 -498 -299 -915 -652 -1329 -1127 -195 -224 -444 -586
-609 -885 -44 -81 -167 -330 -182 -370 -7 -19 -17 -39 -21 -45 -34 -47 -232
-605 -264 -747 -2 -13 -18 -77 -35 -143 -42 -170 -89 -430 -105 -580 -3 -27
-7 -66 -10 -85 -12 -90 -27 -313 -29 -455 l-2 -123 2400 -1 c2743 0 2591 0
2585 -5 -2 -2 -53 -7 -114 -11 -60 -3 -121 -8 -135 -10 -14 -2 -47 -6 -75 -9
-262 -32 -530 -86 -800 -161 -660 -185 -1324 -525 -1844 -944 -52 -42 -108
-87 -126 -101 -94 -73 -391 -360 -505 -486 -124 -137 -282 -331 -398 -489
-181 -246 -411 -653 -552 -975 -100 -228 -236 -628 -275 -810 -2 -8 -13 -55
-25 -105 -12 -49 -24 -99 -25 -110 -2 -11 -9 -45 -15 -75 -6 -30 -13 -68 -15
-85 -3 -16 -8 -41 -10 -55 -3 -14 -7 -38 -9 -55 -3 -16 -7 -50 -11 -75 -3 -25
-7 -61 -9 -80 -2 -19 -7 -55 -10 -80 -4 -25 -8 -70 -11 -100 -2 -30 -7 -98
-11 -150 -14 -181 -8 -623 11 -815 2 -22 7 -68 10 -103 4 -35 8 -71 9 -80 3
-16 11 -69 22 -152 13 -91 41 -234 84 -430 21 -93 95 -348 129 -445 12 -33 23
-69 26 -80 3 -11 9 -29 14 -40 5 -11 35 -85 66 -163 129 -329 300 -654 506
-964 70 -106 201 -288 234 -325 5 -6 21 -26 35 -44 172 -225 477 -538 743
-761 488 -409 1029 -719 1617 -928 147 -52 345 -116 389 -125 9 -2 73 -18 143
-35 70 -17 138 -33 150 -36 101 -19 189 -36 218 -40 19 -3 58 -9 85 -14 28 -5
75 -12 105 -15 30 -4 66 -8 80 -10 104 -15 195 -22 428 -30 l192 -8 1 29 c0
16 0 847 1 1847 l0 1817 3203 0 3202 0 -1 808 -1 807 -3010 2 c-1655 1 -3023
2 -3039 3 -61 1 -17 8 88 15 60 4 117 8 125 10 9 1 43 6 76 9 99 12 121 15
340 52 25 4 102 21 275 59 176 38 621 183 755 245 11 5 37 16 58 24 100 40
380 177 512 251 233 130 584 366 748 505 195 164 267 230 408 370 91 91 190
193 220 227 71 81 129 149 154 180 11 14 40 51 65 81 80 100 247 339 330 473
287 462 497 953 630 1474 58 227 94 404 115 575 2 14 6 43 9 65 3 22 8 60 11
85 3 25 7 63 10 85 26 222 26 899 0 1035 -2 11 -7 48 -10 83 -4 34 -8 76 -10
92 -4 37 -13 107 -20 146 -3 16 -7 44 -10 62 -37 221 -108 504 -185 742 -170
520 -391 961 -709 1415 -52 74 -97 137 -100 140 -3 3 -19 23 -36 45 -184 250
-504 583 -800 831 -589 494 -1278 853 -2025 1054 -63 17 -144 38 -180 46 -102
22 -251 52 -295 58 -22 4 -65 11 -95 16 -81 13 -180 26 -285 36 -38 3 -83 8
-100 11 -37 6 -700 14 -706 9z m601 -10606 c0 -5 -2 -10 -4 -10 -3 0 -8 5 -11
10 -3 6 -1 10 4 10 6 0 11 -4 11 -10z"/>
</g>
</svg>
